<svg xmlns="http://www.w3.org/2000/svg" xmlns:xlink="http://www.w3.org/1999/xlink" width="500" zoomAndPan="magnify" viewBox="0 0 375 374.999991" height="500" preserveAspectRatio="xMidYMid meet" version="1.0"><defs><clipPath id="da844c678a"><path d="M 187 94.59375 L 282.449219 94.59375 L 282.449219 242 L 187 242 Z M 187 94.59375 " clip-rule="nonzero"/></clipPath><clipPath id="c67b1cba08"><path d="M 92.699219 138 L 188 138 L 188 280.59375 L 92.699219 280.59375 Z M 92.699219 138 " clip-rule="nonzero"/></clipPath><clipPath id="826e85ecd3"><path d="M 145 120 L 243.4375 120 L 243.4375 257 L 145 257 Z M 145 120 " clip-rule="nonzero"/></clipPath><clipPath id="0985bd1156"><path d="M 109.1875 120 L 206 120 L 206 219 L 109.1875 219 Z M 109.1875 120 " clip-rule="nonzero"/></clipPath></defs><g clip-path="url(#da844c678a)"><path fill="#0097b2" d="M 187.480469 94.664062 L 189.070312 94.652344 L 189.863281 94.648438 L 190.65625 94.664062 L 192.246094 94.691406 L 193.832031 94.765625 L 194.625 94.800781 L 195.417969 94.855469 L 197.003906 94.96875 L 198.589844 95.117188 L 199.378906 95.195312 L 200.167969 95.292969 C 200.695312 95.355469 201.222656 95.417969 201.75 95.488281 L 203.324219 95.71875 C 203.585938 95.761719 203.851562 95.796875 204.109375 95.84375 L 204.894531 95.976562 L 205.683594 96.113281 C 205.945312 96.164062 206.207031 96.199219 206.464844 96.257812 C 207.507812 96.46875 208.550781 96.664062 209.585938 96.90625 L 210.363281 97.085938 L 210.753906 97.167969 L 211.140625 97.265625 L 212.683594 97.65625 C 220.980469 99.84375 228.824219 103.113281 236.214844 107.46875 C 237.125 108.023438 238.046875 108.566406 238.941406 109.152344 C 239.847656 109.71875 240.726562 110.320312 241.613281 110.917969 C 242.054688 111.21875 242.488281 111.53125 242.925781 111.839844 L 243.582031 112.304688 L 244.222656 112.78125 C 244.648438 113.101562 245.082031 113.417969 245.507812 113.742188 L 246.773438 114.730469 C 248.445312 116.066406 250.085938 117.445312 251.660156 118.890625 L 252.253906 119.429688 C 252.449219 119.613281 252.644531 119.800781 252.839844 119.984375 L 254 121.09375 C 254.757812 121.851562 255.527344 122.597656 256.257812 123.382812 C 262.230469 129.628906 267.242188 136.566406 271.292969 144.199219 C 275.316406 151.796875 278.394531 159.925781 280.269531 168.363281 L 280.59375 169.949219 L 280.757812 170.742188 L 280.902344 171.539062 L 281.183594 173.136719 L 281.421875 174.738281 C 281.460938 175.003906 281.507812 175.273438 281.539062 175.539062 L 281.636719 176.34375 C 281.703125 176.882812 281.769531 177.417969 281.828125 177.957031 L 281.976562 179.566406 C 282 179.835938 282.03125 180.105469 282.046875 180.375 L 282.097656 181.183594 C 282.128906 181.722656 282.171875 182.261719 282.195312 182.800781 L 282.253906 184.421875 C 282.261719 184.691406 282.277344 184.960938 282.277344 185.230469 L 282.285156 186.039062 C 282.289062 186.582031 282.296875 187.121094 282.289062 187.660156 C 282.273438 189.820312 282.164062 191.980469 281.988281 194.132812 C 281.8125 196.28125 281.554688 198.425781 281.21875 200.558594 C 280.882812 202.6875 280.46875 204.808594 279.976562 206.90625 C 279.484375 209.003906 278.925781 211.082031 278.28125 213.136719 L 277.777344 214.671875 C 277.695312 214.925781 277.605469 215.179688 277.515625 215.433594 L 277.25 216.199219 L 277.117188 216.578125 L 276.976562 216.957031 L 276.695312 217.710938 C 276.511719 218.214844 276.3125 218.714844 276.117188 219.210938 C 274.535156 223.199219 272.660156 227.046875 270.492188 230.746094 C 269.410156 232.589844 268.261719 234.386719 267.046875 236.136719 C 265.832031 237.886719 264.550781 239.582031 263.195312 241.214844 L 262.851562 240.96875 C 263.9375 239.160156 264.984375 237.332031 265.972656 235.480469 C 266.964844 233.625 267.898438 231.746094 268.773438 229.851562 C 270.523438 226.0625 272.03125 222.175781 273.292969 218.199219 C 273.453125 217.703125 273.609375 217.210938 273.753906 216.710938 L 273.976562 215.964844 L 274.085938 215.59375 L 274.191406 215.214844 C 274.324219 214.714844 274.472656 214.21875 274.605469 213.714844 L 274.996094 212.210938 C 275.492188 210.199219 275.9375 208.175781 276.304688 206.140625 C 276.671875 204.105469 276.988281 202.058594 277.230469 200.007812 L 277.398438 198.46875 C 277.453125 197.957031 277.492188 197.441406 277.542969 196.925781 L 277.578125 196.542969 L 277.660156 195.382812 C 277.679688 195.128906 277.703125 194.871094 277.714844 194.613281 L 277.800781 193.066406 C 277.8125 192.8125 277.820312 192.550781 277.832031 192.292969 L 277.859375 191.519531 L 277.871094 191.132812 L 277.878906 190.746094 L 277.90625 189.199219 L 277.90625 187.652344 C 277.878906 185.589844 277.832031 183.53125 277.683594 181.472656 L 277.636719 180.703125 C 277.621094 180.449219 277.59375 180.1875 277.574219 179.933594 L 277.445312 178.390625 C 277.421875 178.136719 277.390625 177.882812 277.359375 177.625 L 277.273438 176.855469 L 277.191406 176.085938 C 277.164062 175.832031 277.125 175.578125 277.09375 175.320312 L 276.894531 173.789062 L 276.671875 172.253906 L 276.558594 171.492188 L 276.421875 170.726562 L 276.152344 169.199219 C 275.386719 165.132812 274.351562 161.140625 273.042969 157.214844 C 272.726562 156.226562 272.359375 155.261719 272.011719 154.285156 C 271.828125 153.800781 271.636719 153.320312 271.449219 152.839844 L 271.167969 152.117188 L 270.867188 151.398438 C 270.085938 149.480469 269.199219 147.609375 268.277344 145.753906 C 260.824219 130.9375 249.234375 118.1875 235.105469 109.277344 C 231.566406 107.042969 227.890625 105.0625 224.078125 103.332031 L 223.363281 103.007812 C 223.128906 102.894531 222.886719 102.796875 222.644531 102.695312 L 221.203125 102.078125 L 219.746094 101.496094 L 219.015625 101.207031 L 218.28125 100.933594 C 217.789062 100.753906 217.300781 100.566406 216.804688 100.394531 L 215.320312 99.882812 C 214.824219 99.707031 214.324219 99.558594 213.824219 99.398438 L 213.074219 99.160156 L 212.703125 99.042969 C 212.578125 99.003906 212.445312 98.96875 212.324219 98.933594 L 210.8125 98.496094 L 210.054688 98.292969 L 209.292969 98.09375 C 208.28125 97.816406 207.257812 97.589844 206.238281 97.347656 C 205.984375 97.285156 205.730469 97.238281 205.46875 97.179688 L 204.699219 97.023438 L 203.929688 96.863281 C 203.671875 96.808594 203.414062 96.765625 203.15625 96.714844 L 201.605469 96.429688 C 201.085938 96.34375 200.566406 96.265625 200.046875 96.179688 L 199.269531 96.058594 L 198.488281 95.953125 L 196.925781 95.746094 L 195.359375 95.574219 L 194.570312 95.496094 L 193.785156 95.429688 L 192.214844 95.300781 L 190.636719 95.21875 L 189.847656 95.171875 L 189.058594 95.148438 L 187.480469 95.097656 Z M 187.480469 94.664062 " fill-opacity="1" fill-rule="nonzero"/></g><g clip-path="url(#c67b1cba08)"><path fill="#0097b2" d="M 187.480469 280.328125 L 185.9375 280.335938 L 185.164062 280.34375 C 184.90625 280.34375 184.648438 280.335938 184.390625 280.332031 L 182.84375 280.300781 C 182.324219 280.285156 181.808594 280.257812 181.292969 280.238281 C 180.261719 280.203125 179.234375 280.113281 178.203125 280.046875 C 177.949219 280.03125 177.6875 280 177.433594 279.976562 L 176.660156 279.90625 C 176.144531 279.855469 175.632812 279.8125 175.121094 279.746094 L 173.578125 279.558594 C 173.324219 279.527344 173.070312 279.488281 172.816406 279.449219 L 172.054688 279.335938 C 171.027344 279.195312 170.011719 279.007812 168.992188 278.828125 C 166.957031 278.441406 164.929688 278.019531 162.925781 277.5 C 161.917969 277.257812 160.921875 276.964844 159.921875 276.6875 C 159.671875 276.621094 159.425781 276.539062 159.179688 276.464844 L 158.4375 276.238281 L 157.691406 276.007812 C 157.445312 275.933594 157.199219 275.847656 156.953125 275.765625 L 155.476562 275.273438 C 154.988281 275.101562 154.503906 274.917969 154.015625 274.746094 L 153.285156 274.480469 C 153.039062 274.386719 152.800781 274.292969 152.558594 274.195312 L 151.105469 273.628906 C 147.25 272.066406 143.511719 270.25 139.898438 268.191406 C 125.425781 259.960938 113.199219 247.71875 104.941406 233.132812 L 104.550781 232.453125 L 104.175781 231.765625 L 103.429688 230.382812 L 102.710938 228.984375 C 102.589844 228.75 102.464844 228.519531 102.351562 228.285156 L 102.015625 227.578125 C 101.082031 225.699219 100.242188 223.777344 99.433594 221.835938 L 98.851562 220.375 L 98.703125 220.011719 L 98.566406 219.640625 L 98.289062 218.902344 L 98.015625 218.167969 L 97.867188 217.800781 L 97.738281 217.429688 L 97.226562 215.933594 C 96.570312 213.9375 95.953125 211.925781 95.433594 209.886719 C 94.375 205.804688 93.621094 201.667969 93.175781 197.476562 C 92.964844 195.378906 92.804688 193.28125 92.753906 191.175781 L 92.71875 189.992188 C 92.71875 189.859375 92.71875 189.730469 92.71875 189.597656 L 92.707031 188.019531 C 92.699219 187.492188 92.726562 186.96875 92.738281 186.441406 L 92.792969 184.867188 C 93.144531 176.421875 94.679688 168.203125 97.398438 160.199219 C 98.75 156.242188 100.382812 152.410156 102.300781 148.695312 L 103.039062 147.320312 L 103.40625 146.632812 C 103.53125 146.40625 103.648438 146.175781 103.785156 145.953125 L 104.574219 144.613281 C 104.839844 144.164062 105.097656 143.714844 105.371094 143.277344 C 105.933594 142.402344 106.496094 141.53125 107.058594 140.664062 C 107.652344 139.816406 108.246094 138.96875 108.851562 138.132812 L 109.214844 138.359375 C 108.75 139.28125 108.28125 140.191406 107.808594 141.101562 L 106.480469 143.875 L 105.230469 146.671875 C 105.125 146.902344 105.03125 147.144531 104.933594 147.378906 L 104.640625 148.082031 L 104.058594 149.496094 C 102.5625 153.277344 101.296875 157.132812 100.261719 161.066406 C 98.207031 168.902344 97.128906 176.875 97.027344 184.980469 L 97.023438 186.488281 C 97.023438 186.988281 97.007812 187.492188 97.03125 187.992188 L 97.0625 189.5 C 97.0625 189.625 97.0625 189.753906 97.074219 189.878906 L 97.089844 190.253906 L 97.125 191.007812 L 97.160156 191.757812 L 97.175781 192.132812 L 97.203125 192.511719 L 97.304688 194.011719 C 97.320312 194.265625 97.335938 194.515625 97.363281 194.761719 L 97.429688 195.511719 L 97.496094 196.265625 C 97.519531 196.511719 97.539062 196.761719 97.570312 197.011719 C 97.996094 201.003906 98.617188 204.980469 99.515625 208.898438 C 99.9375 210.863281 100.464844 212.804688 101.023438 214.738281 L 101.460938 216.179688 L 101.570312 216.539062 L 101.691406 216.898438 L 101.925781 217.617188 L 102.164062 218.332031 L 102.285156 218.691406 L 102.410156 219.046875 L 102.921875 220.46875 C 103.632812 222.351562 104.375 224.230469 105.214844 226.066406 L 105.523438 226.757812 C 105.628906 226.988281 105.742188 227.210938 105.847656 227.441406 L 106.503906 228.804688 L 107.191406 230.152344 L 107.535156 230.828125 L 108.625 232.820312 L 109.378906 234.132812 C 109.507812 234.351562 109.628906 234.574219 109.761719 234.789062 L 110.15625 235.433594 L 110.550781 236.082031 C 110.683594 236.296875 110.808594 236.515625 110.949219 236.726562 C 111.496094 237.574219 112.03125 238.433594 112.605469 239.265625 L 113.03125 239.890625 L 113.246094 240.207031 L 113.464844 240.515625 L 114.34375 241.75 C 114.488281 241.957031 114.640625 242.15625 114.792969 242.359375 L 115.246094 242.96875 C 115.550781 243.371094 115.851562 243.78125 116.167969 244.175781 L 117.101562 245.367188 C 117.421875 245.761719 117.746094 246.148438 118.066406 246.542969 L 118.550781 247.125 L 120.039062 248.847656 L 121.058594 249.972656 C 121.226562 250.160156 121.398438 250.351562 121.570312 250.53125 L 122.097656 251.082031 C 123.480469 252.5625 124.933594 253.972656 126.417969 255.359375 L 127.539062 256.382812 C 127.726562 256.554688 127.917969 256.722656 128.109375 256.886719 L 128.683594 257.386719 L 129.257812 257.882812 C 129.449219 258.054688 129.648438 258.210938 129.839844 258.371094 L 131.011719 259.34375 C 135.765625 263.207031 140.859375 266.5625 146.289062 269.402344 C 151.71875 272.246094 157.375 274.519531 163.257812 276.222656 C 165.21875 276.804688 167.203125 277.292969 169.195312 277.742188 C 170.199219 277.949219 171.195312 278.171875 172.203125 278.34375 L 172.960938 278.484375 C 173.214844 278.53125 173.460938 278.578125 173.714844 278.617188 L 175.230469 278.855469 C 175.738281 278.941406 176.25 279.003906 176.75 279.070312 L 177.515625 279.171875 C 177.769531 279.207031 178.023438 279.246094 178.277344 279.269531 C 179.296875 279.375 180.3125 279.503906 181.335938 279.574219 C 181.84375 279.617188 182.355469 279.660156 182.867188 279.699219 L 184.402344 279.78125 C 184.660156 279.796875 184.914062 279.8125 185.171875 279.824219 L 185.941406 279.851562 L 187.480469 279.902344 Z M 187.480469 280.328125 " fill-opacity="1" fill-rule="nonzero"/></g><g clip-path="url(#826e85ecd3)"><path fill="#0097b2" d="M 167.324219 190.789062 C 167.324219 196.027344 167.414062 200.726562 167.304688 205.425781 C 167.089844 214.640625 170.105469 222.492188 177.308594 228.34375 C 185.589844 235.074219 194.984375 236.453125 204.816406 232.464844 C 214.480469 228.550781 220.082031 221.144531 221.40625 210.730469 C 221.765625 207.933594 221.800781 205.082031 221.804688 202.257812 C 221.835938 178.648438 221.8125 155.039062 221.84375 131.429688 C 221.847656 126.300781 224.949219 122.265625 229.730469 120.933594 C 236.527344 119.035156 243.441406 123.785156 243.464844 130.898438 C 243.542969 157.5 243.628906 184.097656 243.214844 210.691406 C 242.953125 227.382812 234.433594 239.773438 220.679688 248.582031 C 190.035156 268.199219 149.507812 248.453125 145.839844 212.25 C 145.632812 210.203125 146.054688 208.609375 147.6875 207.234375 C 153.636719 202.210938 159.523438 197.105469 165.441406 192.042969 C 165.847656 191.703125 166.332031 191.445312 167.324219 190.789062 Z M 167.324219 190.789062 " fill-opacity="1" fill-rule="nonzero"/></g><g clip-path="url(#0985bd1156)"><path fill="#0097b2" d="M 205.316406 131.84375 C 205.316406 130.753906 205.136719 129.652344 204.949219 128.570312 C 203.625 120.90625 191.851562 118.191406 187.191406 122.71875 C 179.140625 130.542969 170.4375 137.699219 161.890625 144.996094 C 144.425781 159.910156 126.886719 174.75 109.335938 189.570312 C 109.285156 189.613281 109.246094 189.65625 109.199219 189.699219 L 109.199219 218.238281 C 134.226562 196.96875 158.765625 176.113281 183.71875 154.902344 C 183.71875 156.460938 183.71875 157.390625 183.71875 158.316406 C 183.722656 174.285156 183.710938 190.257812 183.769531 206.226562 C 183.777344 207.925781 184.011719 209.710938 184.574219 211.300781 C 186.234375 216 191.332031 218.976562 195.976562 218.183594 C 201.625 217.214844 205.308594 212.847656 205.3125 206.890625 C 205.34375 181.878906 205.335938 156.859375 205.316406 131.84375 Z M 205.316406 131.84375 " fill-opacity="1" fill-rule="nonzero"/></g></svg>